<svg width="46" height="13" viewBox="0 0 46 13" fill="none" xmlns="http://www.w3.org/2000/svg">
<g clip-path="url(#clip0_2204_359)">
<path d="M16.4204 12.9839H12.3268V5.36281H12.0556C11.2944 7.90375 10.5335 10.4417 9.77137 12.9856H6.66659C5.90653 10.4481 5.14442 7.90417 4.38068 5.35518H4.11888C4.10459 5.98946 4.11439 6.62036 4.11235 7.25125C4.11072 7.8851 4.11235 8.51896 4.11235 9.15282C4.11235 9.78667 4.11235 10.4205 4.11235 11.0544C4.11235 11.6878 4.11235 12.3213 4.11235 12.9492C3.9596 13.0072 0.249543 13.0208 0 12.9661V0.0254462C0.0882181 0.0195143 0.173169 0.00934552 0.258119 0.00892182C1.52421 0.00807442 2.7903 0.00807442 4.05599 0.00807442C4.23242 0.00807442 4.40927 0.0025663 4.5853 0.00892182C5.3911 0.0385809 5.91755 0.488975 6.22836 1.22367C6.36967 1.55713 6.46361 1.91303 6.56203 2.26428C7.04723 3.99426 7.52631 5.72592 8.00824 7.45674C8.02662 7.52326 8.05153 7.58809 8.07563 7.66012H8.3656C8.38929 7.58427 8.41584 7.50674 8.43789 7.42793C8.98109 5.50306 9.52224 3.57733 10.0675 1.65331C10.1876 1.22918 10.3754 0.841918 10.6903 0.530498C11.0036 0.220772 11.3805 0.0563763 11.8069 0.0216329C12.0638 0.000447796 12.3228 0.00934552 12.5809 0.00892182C13.7788 0.00807442 14.9766 0.00849812 16.1745 0.00849812H16.4094C16.4572 0.1873 16.4653 12.7441 16.4204 12.9843V12.9839Z" fill="white"/>
<path d="M31.1151 12.9845H26.9431V5.36126H26.6111C26.5817 5.42312 26.5466 5.49049 26.5163 5.5604C25.6497 7.55688 24.7814 9.55294 23.9176 11.5507C23.5888 12.3108 23.0411 12.7892 22.2541 12.9688C22.1753 12.9866 22.0928 12.9947 22.0119 12.9947C20.8006 12.9964 19.5892 12.9959 18.3778 12.9951C18.3117 12.9951 18.2455 12.9879 18.165 12.9828V0.0518634C18.3055 -0.00109927 21.9833 -0.0222843 22.3415 0.0306783C22.3472 0.119656 22.3587 0.214141 22.3587 0.30905C22.3595 2.66102 22.3595 5.01298 22.3595 7.36495V7.64671H22.6646C22.6964 7.5823 22.7356 7.50943 22.7691 7.43443C23.6476 5.45109 24.5282 3.46901 25.4014 1.48313C25.6525 0.911553 26.0091 0.453108 26.5699 0.184906C26.8137 0.067964 27.0649 0.00398515 27.3381 0.00567995C28.5155 0.0120355 29.6926 0.00822216 30.8701 0.00822216C30.9505 0.00822216 31.0306 0.00822216 31.1045 0.00822216C31.1551 0.188295 31.1633 12.7472 31.1155 12.9849L31.1151 12.9845Z" fill="white"/>
<path d="M45.9072 5.36881C45.8222 5.37305 45.7487 5.37941 45.6752 5.37941C43.2055 5.37898 40.7354 5.38449 38.2657 5.37093C37.745 5.36797 37.2189 5.37898 36.7047 5.23916C35.9194 5.02604 35.2259 4.63581 34.6186 4.08542C33.7923 3.33717 33.1952 2.42579 32.853 1.34281C32.7219 0.927579 32.6296 0.503031 32.6055 0.0331462C32.6851 0.0297566 32.7623 0.0238248 32.8395 0.0238248C34.6765 0.0217063 36.5136 0.0204352 38.3507 0.0187404C39.3782 0.017893 40.4054 0.0187404 41.433 0.0166219C42.2294 0.0145034 42.9891 0.178052 43.6915 0.57167C44.9458 1.27417 45.6838 2.36732 45.9391 3.81383C46.024 4.29558 46.0244 4.7786 45.937 5.26077C45.9321 5.28789 45.9223 5.31416 45.9072 5.36839V5.36881Z" fill="#808080"/>
<path d="M45.6293 6.20299C45.5129 6.56271 45.3443 6.87456 45.136 7.16225C44.4408 8.12109 43.5039 8.69351 42.3918 8.97993C41.9801 9.08585 41.5615 9.12187 41.138 9.12102C39.7771 9.11805 38.4163 9.12017 37.0554 9.12017C36.9754 9.12017 36.8949 9.12017 36.7936 9.12017V12.9483C36.6303 13.0068 33.0395 13.0191 32.7957 12.9665V6.22502C32.8034 6.21528 32.8075 6.20935 32.8124 6.20469C32.8173 6.20002 32.8226 6.19494 32.8287 6.19367C32.8553 6.18816 32.8818 6.17969 32.9084 6.17969C37.1204 6.17969 41.3324 6.17969 45.5444 6.18053C45.5636 6.18053 45.5828 6.19028 45.6302 6.20299H45.6293Z" fill="white"/>
</g>
<defs>
<clipPath id="clip0_2204_359">
<rect width="46" height="13" fill="white"/>
</clipPath>
</defs>
</svg>
